<svg xmlns="http://www.w3.org/2000/svg" xmlns:xlink="http://www.w3.org/1999/xlink" width="175.762" height="32" viewBox="0 0 175.762 32">
  <defs>
    <clipPath id="clip-path">
      <rect width="175.762" height="32" fill="none"/>
    </clipPath>
  </defs>
  <g id="skyline" clip-path="url(#clip-path)">
    <path id="Path_958" data-name="Path 958" d="M131.979,32.594c-.573-.1-.57-.546-.57-.976a8.165,8.165,0,0,0-2.636-5.916,6.139,6.139,0,0,1-1.825-3.368c-.1-.6-.34-.785-.886-.712a.855.855,0,0,1-.107,0,7.6,7.6,0,0,0-2.409.067c-.774.279-.473,1.346-.829,2.006a7.444,7.444,0,0,1-1.258,1.805,8.67,8.67,0,0,0-2.841,6.16c-.006.389.037.8-.49.915-.105.024-.227,0-.178.237.534,2.57.092,5.172.243,7.755.039.665-.2.932-.9.947-.856.016-2-.432-2.492.234-.408.553-.16,1.63-.111,2.472.047.8-.153,1.125-1.038,1.105-2.712-.056-5.425-.04-8.137-.007-.734.009-1.047-.231-.969-.97a9.238,9.238,0,0,0,0-.951c0-1.841,0-1.841,1.6-2.285-.788-.326-1.82.271-2.332-.332-.445-.522-.35-1.469-.616-2.182-1.027-2.753-3.952-4.308-7.219-3.89a6.062,6.062,0,0,0-5.213,5.316c-.073.711-.341,1.018-1.053.978-.519-.03-1.043-.006-1.607-.006.049.139.061.224.085.228,1.5.231,1.5.231,1.5,1.762,0,2.32,0,2.319-2.357,2.319-5.284,0-10.569-.006-15.852.009-.647,0-1.05-.053-1.053-.886,0-.849.429-.872,1.061-.871q7.608.02,15.217,0a1.712,1.712,0,0,0,1.135-.178c-1.693-.59-1.693-.59-1.693-2.572,0-.211.016-.424,0-.633-.074-.755.212-1.175,1.013-1.041,1.274.215,1.906-.193,2.4-1.519a8.34,8.34,0,0,1,15.273.322,1.478,1.478,0,0,0,1.761,1.217c1.485-.089,1.489-.024,1.489,1.476v.211a8.957,8.957,0,0,1-.046,1.9c-.2.838-1.156.1-1.668.679a3.4,3.4,0,0,0,1.555.141c1.338.018,2.679-.036,4.015.022.764.033.993-.251.938-.97-.049-.665.016-1.338-.018-2.006-.033-.619.172-.948.834-.877a.832.832,0,0,0,.105,0c.8-.049,1.853.343,2.346-.157.579-.587.139-1.67.2-2.535.034-.525,0-1.056.007-1.584.01-.507-.122-.7-.666-1.018-.978-.565-.237-1.776-.406-2.694-.064-.346-.125-.991.375-.93,1.359.165,1.276-.816,1.481-1.617a9.584,9.584,0,0,1,2.74-4.675,4.619,4.619,0,0,0,1.524-3.669c-.022-.822.209-1.128,1.065-1.113,1.684.03,1.685-.013,1.685-1.731,0-1.3.024-2.608-.01-3.911-.015-.633.276-.774.835-.767s.966.031.951.764c-.031,1.55.027,3.1-.024,4.649-.024.752.144,1.162.978,1.016.1-.018.214.01.316,0,1.058-.156,1.5.185,1.457,1.36a4.279,4.279,0,0,0,1.461,3.368,9.3,9.3,0,0,1,2.914,5.381c.095.592.271.988.993.892.613-.082.78.309.763.855-.019.6,0,1.2,0,1.8,0,.555.132,1.187-.783,1.136-.347-.019-.335.291-.335.537,0,1.34.018,2.678-.01,4.016-.012.54.234.656.7.639.633-.022,1.27.025,1.9-.013s.9.178.863.84c-.043.771.006,1.549-.013,2.323-.013.487.162.7.672.688,1.445-.022,2.889-.018,4.333,0,.467.006.617-.194.6-.635a17.343,17.343,0,0,0-.021-2c-.24-1.623.727-3.1.5-4.719-.071-.5.424-.507.766-.455.745.111.964-.283,1.079-.924q1.406-7.949,2.847-15.892c.11-.611.114-1.257,1.084-1.191.663.046.893.249,1.009.895.949,5.3,1.945,10.591,2.906,15.887.132.727.188,1.4,1.23,1.23.6-.1.6.381.668.829a28.853,28.853,0,0,1,.458,6.4c-.039.6.35.576.757.576,2.148,0,4.3.007,6.446-.013.291,0,.76.226.8-.372.033-.454-.178-.678-.61-.841a3.217,3.217,0,0,1-2.394-3.314,3.111,3.111,0,0,1,2.721-3.142,4.611,4.611,0,0,0,2.736-1.4,14.57,14.57,0,0,0,5-8.47c.114-.642.5-.592.982-.642.691-.073.924.215,1.044.834a15.084,15.084,0,0,0,5.593,8.817,3.148,3.148,0,0,0,1.881.817,3.24,3.24,0,0,1,2.961,2.952,3.294,3.294,0,0,1-2.28,3.512c-.43.141-.809.22-.752.8.07.717.61.4.966.461a5.224,5.224,0,0,0,6.089-2.837c.3-.546,1.056-.96,1.114-1.488.065-.605-.837-.809-1.289-1.217a5.534,5.534,0,0,1-.056-8.608,42.205,42.205,0,0,0,6.75-7.525,1.571,1.571,0,0,1,2.5,0,43.253,43.253,0,0,0,6.8,7.618c2.964,2.623,2.6,6.409-.734,8.935-.8.607-.739.933-.154,1.581,1.012,1.125,1.734,2.777,2.975,3.351,1.282.593,3.037.174,4.584.184,1.217.009,1.463-.307,1.211-1.494-.036-.174-.036-.378-.258-.4-.528-.046-.994-.126-.929-.838.077-.829-.231-1.687.757-2.322,2.874-1.844,5.689-3.779,8.5-5.718a1.191,1.191,0,0,1,1.59-.006c2.838,1.963,5.678,3.923,8.582,5.783,1,.644.681,1.5.74,2.326.055.749-.574.583-.991.779-.59.279-.234.926-.277,1.406-.058.648.479.476.823.476q7.239.016,14.478.007c.423,0,.847.027,1.267-.006.663-.053,1.031.073,1.03.889,0,.85-.433.866-1.062.865-5.777-.012-11.554-.021-17.331.009-.817,0-1.142-.211-1.093-1.068.065-1.159.016-2.325.016-3.486,0-.141-.056-.328.012-.417.837-1.08-.225-1.3-.786-1.682-1.854-1.28-3.743-2.51-5.594-3.793a.884.884,0,0,0-1.2-.006c-2.111,1.464-4.252,2.886-6.381,4.325-.306.208-.852.355-.151.807.15.1.116.522.119.8.01,1.233-.013,2.467.012,3.7.012.58-.188.823-.791.817q-3.647-.029-7.292,0a1.16,1.16,0,0,1-.979-.5c-1.513-1.856-3.016-3.719-4.565-5.546-.583-.687-.378-.984.362-1.279a6.5,6.5,0,0,0,2.648-1.871c1.372-1.65,1.466-3.577-.135-5.019a44.5,44.5,0,0,1-6.75-7.387c-.291-.412-.472-.255-.688.058a41.107,41.107,0,0,1-6.6,7.232c-1.746,1.561-1.657,3.614-.042,5.311a7.059,7.059,0,0,0,2.519,1.7c.841.334.774.688.26,1.3-1.524,1.8-3.012,3.632-4.5,5.467a1.22,1.22,0,0,1-1.058.534q-3.011-.038-6.023,0c-.645.007-.878-.231-.856-.869.036-.985.036-1.973,0-2.958-.024-.648.243-.9.874-.853a3.82,3.82,0,0,0,.948-.018,1.417,1.417,0,0,0,1.277-1.343,1.341,1.341,0,0,0-1.122-1.567c-3.08-.414-4.725-2.7-6.483-4.841a17.031,17.031,0,0,1-2.062-3.556,28.454,28.454,0,0,1-2,3.474,18.1,18.1,0,0,1-4.356,4.265,3.613,3.613,0,0,1-1.783.586c-1.038.116-1.613.743-1.549,1.632a1.548,1.548,0,0,0,1.693,1.371c1.446.045,1.446.045,1.448,1.455,0,.776-.021,1.552.006,2.325.021.61-.175.9-.843.895q-5.072-.031-10.145,0c-.608,0-.806-.26-.8-.825.016-1.163.012-2.325,0-3.488,0-.291.114-.7-.363-.736s-.972-.022-.92-.7c.055-.7-.359-1.589.8-1.964-1.056.058-1.386-.395-1.547-1.368-.7-4.19-1.518-8.358-2.442-12.564-.277,1.445-.562,2.887-.828,4.335-.519,2.832-1.047,5.664-1.53,8.5-.139.822-.5,1.2-1.445,1,1.084.628.589,1.561.654,2.351a.309.309,0,0,1-.312.355c-1.2-.105-.914.755-.923,1.406-.015.951-.019,1.9,0,2.853.013.556-.144.846-.771.841q-3.805-.033-7.609,0c-.593,0-.828-.215-.8-.806.03-.633-.067-1.279.022-1.9.144-1-.3-1.154-1.178-1.135-2.335.053-2.371.015-2.325-2.329A46,46,0,0,1,132,32.828c.28-.267.654-.021.923-.165A1.459,1.459,0,0,1,131.979,32.594Z" transform="translate(-70.433 -13.325)" fill="#af8128"/>
    <g id="Group_1120" data-name="Group 1120" transform="translate(0.469 0.448)">
      <g id="Group_1088" data-name="Group 1088" transform="translate(62.009 20.532)">
        <path id="Path_959" data-name="Path 959" d="M113.109,33.064a1.083,1.083,0,0,1-.266-.82c.019-.908.016-1.816.012-2.724V28.21a.985.985,0,0,1,.24-.743c-.31.085-.536.326-.537.917v1.308c0,.908.007,1.816-.012,2.724a.96.96,0,0,0,1.074,1.1l.482-.007.9.007c.208,0,.414,0,.62-.016h.042c.239,0,.3.028.309.04s.053.059.039.326c-.025.452-.019.9-.015,1.359,0,.326.009.653,0,.981a1.13,1.13,0,0,0,.271.856,1.088,1.088,0,0,0,.822.289c.725-.009,1.418-.015,2.111-.015q1.122,0,2.245.015a1.063,1.063,0,0,0,.736-.237,1.386,1.386,0,0,1-.441.065q-1.122-.016-2.245-.016c-.691,0-1.384.006-2.11.016a1.088,1.088,0,0,1-.822-.289,1.122,1.122,0,0,1-.271-.857c.009-.326,0-.654,0-.979-.006-.454-.01-.906.013-1.359.016-.267-.037-.328-.039-.328s-.068-.039-.307-.039h-.043c-.206.012-.412.015-.619.015l-.9-.007-.482.007A1.091,1.091,0,0,1,113.109,33.064Z" transform="translate(-112.547 -27.467)" fill="#cbad63"/>
        <path id="Path_960" data-name="Path 960" d="M113.095,27.467c-.31.085-.536.326-.537.917v1.308c0,.908.007,1.816-.012,2.724a.96.96,0,0,0,1.074,1.1l.482-.007.9.007c.208,0,.414,0,.62-.016h.042c.239,0,.3.028.309.04s.053.059.039.326c-.025.452-.019.9-.015,1.359,0,.326.009.653,0,.981a1.13,1.13,0,0,0,.271.856,1.088,1.088,0,0,0,.822.289c.725-.009,1.418-.015,2.111-.015q1.122,0,2.245.015a1.063,1.063,0,0,0,.736-.237,1.386,1.386,0,0,1-.441.065q-1.122-.016-2.245-.016c-.691,0-1.384.006-2.11.016a1.088,1.088,0,0,1-.822-.289,1.122,1.122,0,0,1-.271-.857c.009-.326,0-.654,0-.979-.006-.454-.01-.906.013-1.359.016-.267-.037-.328-.039-.328s-.068-.039-.307-.039h-.043c-.206.012-.412.015-.619.015l-.9-.007-.482.007a.96.96,0,0,1-1.074-1.1c.019-.908.016-1.816.012-2.724V28.21a.985.985,0,0,1,.24-.743Z" transform="translate(-112.547 -27.467)" fill="#ffeec1"/>
      </g>
      <g id="Group_1089" data-name="Group 1089" transform="translate(42.427 26.391)">
        <path id="Path_961" data-name="Path 961" d="M99.464,31.6l.211-.006a5.942,5.942,0,0,1,.656.049,6.818,6.818,0,0,0,.737.053,1.585,1.585,0,0,0,.926-.266,1.979,1.979,0,0,1-.631.093,6.806,6.806,0,0,1-.736-.055,6.359,6.359,0,0,0-.656-.049l-.212.006-.208-.012a.3.3,0,0,0-.169.033.694.694,0,0,0-.036.145Z" transform="translate(-99.347 -31.416)" fill="#cbad63"/>
        <path id="Path_962" data-name="Path 962" d="M99.552,31.416a.3.3,0,0,0-.169.033.694.694,0,0,0-.036.145l.117.007.211-.006a5.942,5.942,0,0,1,.656.049,6.818,6.818,0,0,0,.737.053,1.585,1.585,0,0,0,.926-.266,1.979,1.979,0,0,1-.631.093,6.806,6.806,0,0,1-.736-.055,6.359,6.359,0,0,0-.656-.049l-.212.006-.208-.012Z" transform="translate(-99.347 -31.416)" fill="#ffeec1"/>
      </g>
      <g id="Group_1090" data-name="Group 1090" transform="translate(72.738 22.331)">
        <path id="Path_963" data-name="Path 963" d="M120.038,28.968a1.105,1.105,0,0,0,.774-.289,1.191,1.191,0,0,1-.478.116,1.859,1.859,0,0,1-.3-.024,1.892,1.892,0,0,1-.255-.049c.012.077.007.151.013.227A2.157,2.157,0,0,0,120.038,28.968Z" transform="translate(-119.778 -28.679)" fill="#cbad63"/>
        <path id="Path_964" data-name="Path 964" d="M120.812,28.679a1.191,1.191,0,0,1-.478.116,1.859,1.859,0,0,1-.3-.024,1.892,1.892,0,0,1-.255-.049c.012.077.007.151.013.227a2.157,2.157,0,0,0,.246.019,1.105,1.105,0,0,0,.774-.289Z" transform="translate(-119.778 -28.679)" fill="#ffeec1"/>
      </g>
      <g id="Group_1091" data-name="Group 1091" transform="translate(77.574 4.417)">
        <path id="Path_965" data-name="Path 965" d="M123.1,16.778c.561.034.622.089.7.528q.832,4.651,1.7,9.293.608,3.3,1.211,6.6c.128.72.286,1.626,1.369,1.626a2.182,2.182,0,0,0,.372-.034c.089.012.114.193.131.312a29.234,29.234,0,0,1,.476,6.449.994.994,0,0,0,.228.773,1.139,1.139,0,0,0,.883.277h3.16c1.127,0,2.255,0,3.383-.012a4.2,4.2,0,0,0,.423.04.786.786,0,0,0,.579-.223.9.9,0,0,1-.282.049,3.8,3.8,0,0,1-.424-.04c-1.126.01-2.254.012-3.383.012h-3.159a1.142,1.142,0,0,1-.884-.277.992.992,0,0,1-.227-.771,29.408,29.408,0,0,0-.476-6.449c-.018-.119-.042-.3-.131-.312a2.359,2.359,0,0,1-.372.034c-1.083,0-1.243-.906-1.371-1.626q-.6-3.3-1.209-6.6-.857-4.644-1.7-9.293c-.08-.441-.141-.494-.7-.53-.2,0-.3.037-.363.18C123.062,16.782,123.077,16.778,123.1,16.778Z" transform="translate(-123.038 -16.604)" fill="#cbad63"/>
        <path id="Path_966" data-name="Path 966" d="M123.4,16.6c-.2,0-.3.037-.363.18.024,0,.039-.006.067-.006.561.034.622.089.7.528q.832,4.651,1.7,9.293.608,3.3,1.211,6.6c.128.72.286,1.626,1.369,1.626a2.182,2.182,0,0,0,.372-.034c.089.012.114.193.131.312a29.234,29.234,0,0,1,.476,6.449.994.994,0,0,0,.228.773,1.139,1.139,0,0,0,.883.277h3.16c1.127,0,2.255,0,3.383-.013a3.914,3.914,0,0,0,.423.042.786.786,0,0,0,.579-.223.9.9,0,0,1-.282.049,3.8,3.8,0,0,1-.424-.04c-1.126.01-2.254.012-3.383.012h-3.159a1.142,1.142,0,0,1-.884-.277.992.992,0,0,1-.227-.771,29.408,29.408,0,0,0-.476-6.449c-.018-.119-.042-.3-.131-.312a2.359,2.359,0,0,1-.372.034c-1.083,0-1.243-.906-1.371-1.626q-.6-3.3-1.209-6.6-.857-4.644-1.7-9.293c-.08-.441-.141-.494-.7-.53Z" transform="translate(-123.038 -16.604)" fill="#ffeec1"/>
      </g>
      <g id="Group_1092" data-name="Group 1092" transform="translate(50.996 6.277)">
        <path id="Path_967" data-name="Path 967" d="M105.344,18.162l.512.006a1.943,1.943,0,0,0,1.289-.31,2.8,2.8,0,0,1-.993.138l-.512-.006c-.344,0-.447.065-.473.095a.267.267,0,0,0-.045.089A1.782,1.782,0,0,1,105.344,18.162Z" transform="translate(-105.123 -17.858)" fill="#cbad63"/>
        <path id="Path_968" data-name="Path 968" d="M107.145,17.858a2.8,2.8,0,0,1-.993.138l-.512-.006c-.344,0-.447.065-.473.095a.267.267,0,0,0-.045.089,1.782,1.782,0,0,1,.221-.012l.512.006a1.943,1.943,0,0,0,1.289-.31Z" transform="translate(-105.123 -17.858)" fill="#ffeec1"/>
      </g>
      <g id="Group_1093" data-name="Group 1093" transform="translate(53.702)">
        <path id="Path_969" data-name="Path 969" d="M106.986,13.8a1.5,1.5,0,0,1,.51.055s.04.052.036.252c-.015.7-.01,1.4-.006,2.108,0,.846.009,1.691-.018,2.537a1.6,1.6,0,0,0,.322,1.2,1.065,1.065,0,0,0,.8.3,2.138,2.138,0,0,0,.378-.036l.169.007a4.886,4.886,0,0,1,.5-.042c.31,0,.393.088.421.114.08.085.172.294.154.819a4.728,4.728,0,0,0,1.6,3.712,8.827,8.827,0,0,1,2.777,5.124,1.272,1.272,0,0,0,1.233,1.283,2.1,2.1,0,0,0,.261-.019l.2.01s.071.077.061.387c-.013.4-.01.8-.007,1.2l.006.81a2.653,2.653,0,0,1-.01.32c.018,0,.034-.006.052-.006h.016a.409.409,0,0,0,.206-.033,1.363,1.363,0,0,0,.033-.455l-.006-.809c0-.4-.006-.8.006-1.2.01-.309-.056-.383-.059-.386l-.2-.01a2.064,2.064,0,0,1-.26.018,1.271,1.271,0,0,1-1.234-1.283,8.838,8.838,0,0,0-2.776-5.124,4.718,4.718,0,0,1-1.6-3.71c.018-.525-.076-.736-.156-.819-.027-.028-.11-.114-.42-.114a4.717,4.717,0,0,0-.5.04l-.169-.006a2.139,2.139,0,0,1-.378.036,1.07,1.07,0,0,1-.8-.3,1.61,1.61,0,0,1-.323-1.206c.028-.844.024-1.69.018-2.537,0-.7-.007-1.4.007-2.107a.469.469,0,0,0-.037-.254,1.531,1.531,0,0,0-.509-.053c-.26,0-.309.045-.31.045a.827.827,0,0,0-.025.131C106.965,13.8,106.966,13.8,106.986,13.8Z" transform="translate(-106.947 -13.627)" fill="#cbad63"/>
        <path id="Path_970" data-name="Path 970" d="M107.282,13.627c-.26,0-.309.045-.31.045a.827.827,0,0,0-.025.131c.018,0,.019,0,.039,0a1.5,1.5,0,0,1,.51.055s.04.052.036.252c-.015.7-.01,1.4-.006,2.108,0,.846.009,1.691-.018,2.537a1.6,1.6,0,0,0,.322,1.2,1.065,1.065,0,0,0,.8.3,2.138,2.138,0,0,0,.378-.036l.169.007a4.886,4.886,0,0,1,.5-.042c.31,0,.393.088.421.114.08.085.172.294.154.819a4.728,4.728,0,0,0,1.6,3.712,8.827,8.827,0,0,1,2.777,5.124,1.272,1.272,0,0,0,1.233,1.283,2.1,2.1,0,0,0,.261-.019l.2.01s.071.077.061.387c-.013.4-.01.8-.007,1.2l.006.81a2.653,2.653,0,0,1-.01.32c.018,0,.034-.006.052-.006h.016a.409.409,0,0,0,.206-.033,1.363,1.363,0,0,0,.033-.455l-.006-.809c0-.4-.006-.8.006-1.2.01-.309-.056-.383-.059-.386l-.2-.01a2.064,2.064,0,0,1-.26.018,1.271,1.271,0,0,1-1.234-1.283,8.838,8.838,0,0,0-2.776-5.124,4.718,4.718,0,0,1-1.6-3.71c.018-.525-.076-.736-.156-.819-.027-.028-.11-.114-.42-.114a4.717,4.717,0,0,0-.5.04l-.169-.006a2.139,2.139,0,0,1-.378.036,1.07,1.07,0,0,1-.8-.3,1.61,1.61,0,0,1-.323-1.206c.028-.844.024-1.69.018-2.537,0-.7-.007-1.4.007-2.107a.469.469,0,0,0-.037-.254,1.531,1.531,0,0,0-.509-.053Z" transform="translate(-106.947 -13.627)" fill="#ffeec1"/>
      </g>
      <g id="Group_1094" data-name="Group 1094" transform="translate(107.831 27.105)">
        <path id="Path_971" data-name="Path 971" d="M143.7,32.094a.387.387,0,0,0-.231.046.486.486,0,0,0-.039.128c.251.016.415.025.576.025a3.236,3.236,0,0,0,.564-.045,2.147,2.147,0,0,0,.84-.352,2.322,2.322,0,0,1-.544.18,3.374,3.374,0,0,1-.564.045C144.138,32.121,143.972,32.111,143.7,32.094Z" transform="translate(-143.433 -31.897)" fill="#cbad63"/>
        <path id="Path_972" data-name="Path 972" d="M145.412,31.9a2.322,2.322,0,0,1-.544.18,3.374,3.374,0,0,1-.564.045c-.166,0-.332-.01-.6-.027a.387.387,0,0,0-.231.046.486.486,0,0,0-.039.128c.251.016.415.025.576.025a3.236,3.236,0,0,0,.564-.045,2.147,2.147,0,0,0,.84-.352Z" transform="translate(-143.433 -31.897)" fill="#ffeec1"/>
      </g>
      <g id="Group_1095" data-name="Group 1095" transform="translate(128.34 23.925)">
        <path id="Path_973" data-name="Path 973" d="M158.987,29.754a7.6,7.6,0,0,1-1.313.708,2.084,2.084,0,0,0-.415.208h0l.007.019c.043-.019.058-.031.114-.053A7.477,7.477,0,0,0,158.987,29.754Z" transform="translate(-157.257 -29.754)" fill="#cbad63"/>
        <path id="Path_974" data-name="Path 974" d="M158.987,29.754a7.6,7.6,0,0,1-1.313.708,2.084,2.084,0,0,0-.415.208h0l.007.019c.043-.019.058-.031.114-.053a7.477,7.477,0,0,0,1.608-.88Z" transform="translate(-157.257 -29.754)" fill="#ffeec1"/>
      </g>
      <g id="Group_1096" data-name="Group 1096" transform="translate(123.369 7.946)">
        <path id="Path_975" data-name="Path 975" d="M154.3,19.155a1.056,1.056,0,0,1,.874.427,43.311,43.311,0,0,0,6.873,7.7A4.955,4.955,0,0,1,163.9,31.2a5.847,5.847,0,0,1-2.568,4.323,1.644,1.644,0,0,0-.768,1.065,1.607,1.607,0,0,0,.552,1.172,12.766,12.766,0,0,1,.933,1.228,6.146,6.146,0,0,0,2.187,2.228,4.635,4.635,0,0,0,1.988.361c.455,0,.927-.034,1.4-.068.448-.031.9-.065,1.328-.065h.007a2.2,2.2,0,0,0,1.395-.328,3.053,3.053,0,0,1-1.1.154h-.006c-.432,0-.88.034-1.328.067-.47.034-.942.068-1.4.068a4.611,4.611,0,0,1-1.988-.362,6.118,6.118,0,0,1-2.187-2.227,12.79,12.79,0,0,0-.933-1.23,1.6,1.6,0,0,1-.553-1.172,1.651,1.651,0,0,1,.77-1.065,5.849,5.849,0,0,0,2.568-4.323,4.953,4.953,0,0,0-1.859-3.923,43.27,43.27,0,0,1-6.875-7.7,1.053,1.053,0,0,0-.874-.426,1.1,1.1,0,0,0-.685.26A1.187,1.187,0,0,1,154.3,19.155Z" transform="translate(-153.906 -18.983)" fill="#cbad63"/>
        <path id="Path_976" data-name="Path 976" d="M154.591,18.983a1.1,1.1,0,0,0-.685.26,1.187,1.187,0,0,1,.39-.088,1.056,1.056,0,0,1,.874.427,43.311,43.311,0,0,0,6.873,7.7A4.955,4.955,0,0,1,163.9,31.2a5.847,5.847,0,0,1-2.568,4.323,1.644,1.644,0,0,0-.768,1.065,1.607,1.607,0,0,0,.552,1.172,12.766,12.766,0,0,1,.933,1.228,6.146,6.146,0,0,0,2.187,2.228,4.635,4.635,0,0,0,1.988.361c.455,0,.927-.034,1.4-.068.448-.031.9-.065,1.328-.065h.007a2.2,2.2,0,0,0,1.395-.328,3.053,3.053,0,0,1-1.1.154h-.006c-.432,0-.88.034-1.328.067-.47.034-.942.068-1.4.068a4.611,4.611,0,0,1-1.988-.362,6.118,6.118,0,0,1-2.187-2.227,12.79,12.79,0,0,0-.933-1.23,1.6,1.6,0,0,1-.553-1.172,1.651,1.651,0,0,1,.77-1.065,5.849,5.849,0,0,0,2.568-4.323,4.953,4.953,0,0,0-1.859-3.923,43.27,43.27,0,0,1-6.875-7.7,1.053,1.053,0,0,0-.874-.426Z" transform="translate(-153.906 -18.983)" fill="#ffeec1"/>
      </g>
      <g id="Group_1097" data-name="Group 1097" transform="translate(148.267 19.16)">
        <path id="Path_977" data-name="Path 977" d="M170.977,26.714a.948.948,0,0,1,.536.223c2.639,1.823,5.632,3.891,8.594,5.789.54.347.555.712.534,1.38a5.475,5.475,0,0,0,0,.6c0,.024-.024.03-.034.047.025,0,.053-.018.076-.022a.267.267,0,0,0,.255-.2,5.841,5.841,0,0,1,0-.6c.021-.666.007-1.031-.533-1.378-2.964-1.9-5.957-3.967-8.6-5.79a.935.935,0,0,0-.534-.221,1.019,1.019,0,0,0-.547.228l-.037.024A.731.731,0,0,1,170.977,26.714Z" transform="translate(-170.689 -26.542)" fill="#cbad63"/>
        <path id="Path_978" data-name="Path 978" d="M171.274,26.542a1.019,1.019,0,0,0-.547.228l-.037.024a.731.731,0,0,1,.288-.08.948.948,0,0,1,.536.223c2.639,1.823,5.632,3.891,8.594,5.789.54.347.555.712.534,1.38a5.475,5.475,0,0,0,0,.6c0,.024-.024.03-.034.047.025,0,.053-.018.076-.022a.267.267,0,0,0,.255-.2,5.841,5.841,0,0,1,0-.6c.021-.666.007-1.031-.533-1.378-2.964-1.9-5.957-3.967-8.6-5.79a.935.935,0,0,0-.534-.221Z" transform="translate(-170.689 -26.542)" fill="#ffeec1"/>
      </g>
      <g id="Group_1098" data-name="Group 1098" transform="translate(90.991 22.069)">
        <path id="Path_979" data-name="Path 979" d="M132.9,29.16a4.136,4.136,0,0,0,1.874-.657,4.06,4.06,0,0,1-1.577.485,2.372,2.372,0,0,0-1.111.4A2.4,2.4,0,0,1,132.9,29.16Z" transform="translate(-132.082 -28.503)" fill="#cbad63"/>
        <path id="Path_980" data-name="Path 980" d="M134.77,28.5a4.06,4.06,0,0,1-1.577.485,2.372,2.372,0,0,0-1.111.4,2.4,2.4,0,0,1,.814-.231,4.136,4.136,0,0,0,1.874-.657Z" transform="translate(-132.082 -28.503)" fill="#ffeec1"/>
      </g>
      <g id="Group_1099" data-name="Group 1099" transform="translate(81.771 24.391)">
        <path id="Path_981" data-name="Path 981" d="M125.867,30.126c.024-.007.033-.018.058-.027l-.006-.031C125.9,30.084,125.886,30.108,125.867,30.126Z" transform="translate(-125.867 -30.068)" fill="#cbad63"/>
        <path id="Path_982" data-name="Path 982" d="M125.919,30.068c-.024.016-.033.04-.052.058.024-.007.033-.018.058-.027l-.006-.031Z" transform="translate(-125.867 -30.068)" fill="#ffeec1"/>
      </g>
      <g id="Group_1100" data-name="Group 1100" transform="translate(100.255 12.038)">
        <path id="Path_983" data-name="Path 983" d="M138.43,21.929s.251-.016.286-.016c.269,0,.361.05.442.475a15.485,15.485,0,0,0,5.746,9.076,3.627,3.627,0,0,0,2.139.92,2.8,2.8,0,0,1,2.544,2.552,2.844,2.844,0,0,1-1.064,2.543,2.846,2.846,0,0,0-1.185-5.267,3.614,3.614,0,0,1-2.138-.921,15.466,15.466,0,0,1-5.746-9.076c-.083-.424-.174-.473-.442-.473-.036,0-.286.015-.286.015-.322.027-.368.04-.4.184C138.362,21.935,138.385,21.932,138.43,21.929Z" transform="translate(-138.326 -21.741)" fill="#cbad63"/>
        <path id="Path_984" data-name="Path 984" d="M139.013,21.741c-.036,0-.286.015-.286.015-.322.027-.368.04-.4.184.036,0,.059-.007.1-.01,0,0,.251-.016.286-.016.269,0,.361.05.442.475a15.478,15.478,0,0,0,5.746,9.076,3.627,3.627,0,0,0,2.139.92,2.8,2.8,0,0,1,2.544,2.552,2.844,2.844,0,0,1-1.064,2.543,2.846,2.846,0,0,0-1.185-5.267,3.614,3.614,0,0,1-2.138-.921,15.466,15.466,0,0,1-5.746-9.076c-.083-.424-.174-.473-.442-.473Z" transform="translate(-138.326 -21.741)" fill="#ffeec1"/>
      </g>
      <g id="Group_1101" data-name="Group 1101" transform="translate(108.476 28.4)">
        <path id="Path_985" data-name="Path 985" d="M146.975,34.739A8.228,8.228,0,0,1,145.5,34.6s-.359.024-.438.024a.862.862,0,0,1-.893-.883.96.96,0,0,1,.4-.969,1.011,1.011,0,0,0-.7,1.142.862.862,0,0,0,.893.881c.08,0,.438-.022.438-.022a8.36,8.36,0,0,0,1.472.139,5.387,5.387,0,0,0,3.024-.86A5.453,5.453,0,0,1,146.975,34.739Z" transform="translate(-143.868 -32.77)" fill="#cbad63"/>
        <path id="Path_986" data-name="Path 986" d="M144.576,32.77a1.011,1.011,0,0,0-.7,1.142.862.862,0,0,0,.893.881c.08,0,.439-.022.439-.022a8.331,8.331,0,0,0,1.47.139,5.387,5.387,0,0,0,3.024-.86,5.453,5.453,0,0,1-2.727.688A8.228,8.228,0,0,1,145.5,34.6s-.359.024-.438.024a.862.862,0,0,1-.893-.883.96.96,0,0,1,.4-.969Z" transform="translate(-143.868 -32.77)" fill="#ffeec1"/>
      </g>
      <g id="Group_1102" data-name="Group 1102" transform="translate(44.797 17.374)">
        <path id="Path_987" data-name="Path 987" d="M101.846,25.338a1.633,1.633,0,0,1-.653.126c-.1,0-.218-.006-.237-.095a.928.928,0,0,0-.006.263A1.43,1.43,0,0,0,101.846,25.338Z" transform="translate(-100.945 -25.338)" fill="#cbad63"/>
        <path id="Path_988" data-name="Path 988" d="M101.846,25.338a1.633,1.633,0,0,1-.653.126c-.1,0-.218-.006-.237-.095a.928.928,0,0,0-.006.263,1.421,1.421,0,0,0,.9-.294Z" transform="translate(-100.945 -25.338)" fill="#ffeec1"/>
      </g>
      <g id="Group_1103" data-name="Group 1103" transform="translate(90.363 23.793)">
        <path id="Path_989" data-name="Path 989" d="M135.1,34.193a4.2,4.2,0,0,0-.046-.92,3.719,3.719,0,0,0-.964-.09,1.98,1.98,0,0,1-2.127-1.785,1.813,1.813,0,0,1,.89-1.733,1.843,1.843,0,0,0-1.187,1.906,1.982,1.982,0,0,0,2.127,1.785,3.687,3.687,0,0,1,.966.089,4.2,4.2,0,0,1,.046.92l0,.7c0,.546-.009,1.095.009,1.641a1,1,0,0,1-.016.254.523.523,0,0,0,.26-.058c.01-.01.064-.082.053-.368-.018-.547-.015-1.095-.01-1.642Z" transform="translate(-131.658 -29.665)" fill="#cbad63"/>
        <path id="Path_990" data-name="Path 990" d="M132.851,29.665a1.843,1.843,0,0,0-1.187,1.906,1.982,1.982,0,0,0,2.127,1.785,3.687,3.687,0,0,1,.966.089,4.2,4.2,0,0,1,.046.92l0,.7c0,.546-.009,1.095.009,1.641a1,1,0,0,1-.016.254.523.523,0,0,0,.26-.058c.01-.01.064-.082.053-.368-.018-.547-.015-1.095-.01-1.642l0-.7a4.2,4.2,0,0,0-.046-.92,3.719,3.719,0,0,0-.964-.09,1.98,1.98,0,0,1-2.127-1.785,1.813,1.813,0,0,1,.89-1.733Z" transform="translate(-131.658 -29.665)" fill="#ffeec1"/>
      </g>
      <g id="Group_1104" data-name="Group 1104" transform="translate(74.73 9.975)">
        <path id="Path_991" data-name="Path 991" d="M123.652,20.355l-.257,1.335c-.194,1-.387,2-.571,3l-.221,1.2c-.448,2.435-.895,4.868-1.309,7.307a1.2,1.2,0,0,1-.174.5c.212-.018.375-.117.47-.672.412-2.44.86-4.874,1.308-7.308l.221-1.2c.184-1,.377-2,.571-3l.224-1.166Z" transform="translate(-121.121 -20.351)" fill="#cbad63"/>
        <path id="Path_992" data-name="Path 992" d="M123.916,20.351l-.264,0-.257,1.335c-.194,1-.387,2-.571,3l-.221,1.2c-.448,2.435-.895,4.868-1.309,7.307a1.2,1.2,0,0,1-.174.5c.212-.018.375-.117.47-.672.412-2.44.86-4.874,1.308-7.308l.221-1.2c.184-1,.377-2,.571-3l.224-1.166Z" transform="translate(-121.121 -20.351)" fill="#ffeec1"/>
      </g>
      <g id="Group_1105" data-name="Group 1105" transform="translate(72.849 26.232)">
        <path id="Path_993" data-name="Path 993" d="M120.564,31.309a1,1,0,0,0-.421.252,1.564,1.564,0,0,0-.277,1.224c0,.1.012.2.01.3-.015.955-.019,1.912,0,2.869a1.086,1.086,0,0,1-.015.209h0a.485.485,0,0,0,.264-.046s.05-.056.045-.335c-.022-.957-.018-1.915,0-2.871,0-.1-.006-.2-.012-.3a1.563,1.563,0,0,1,.279-1.222A.893.893,0,0,1,120.564,31.309Z" transform="translate(-119.853 -31.309)" fill="#cbad63"/>
        <path id="Path_994" data-name="Path 994" d="M120.564,31.309a1,1,0,0,0-.421.252,1.564,1.564,0,0,0-.277,1.224c0,.1.012.2.01.3-.015.955-.019,1.912,0,2.869a1.086,1.086,0,0,1-.015.209h0a.485.485,0,0,0,.264-.046s.05-.056.045-.335c-.022-.957-.018-1.915,0-2.871,0-.1-.006-.2-.012-.3a1.563,1.563,0,0,1,.279-1.222.893.893,0,0,1,.125-.08Z" transform="translate(-119.853 -31.309)" fill="#ffeec1"/>
      </g>
      <g id="Group_1106" data-name="Group 1106" transform="translate(73.675 23.467)">
        <path id="Path_995" data-name="Path 995" d="M120.707,30.1l.24-.626a1.835,1.835,0,0,1-.22-.027l-.317.826c.528.306.522.631.457,1.279-.015.153-.021.3-.024.448a1.46,1.46,0,0,1,.239-.039h.049a5.188,5.188,0,0,1,.033-.582C121.227,30.73,121.235,30.4,120.707,30.1Z" transform="translate(-120.41 -29.445)" fill="#cbad63"/>
        <path id="Path_996" data-name="Path 996" d="M120.727,29.445l-.317.826c.528.306.522.631.457,1.279-.015.153-.021.3-.024.448a1.46,1.46,0,0,1,.239-.039h.049a5.188,5.188,0,0,1,.033-.582c.064-.648.071-.975-.457-1.28l.24-.626a1.835,1.835,0,0,1-.22-.027Z" transform="translate(-120.41 -29.445)" fill="#ffeec1"/>
      </g>
      <g id="Group_1107" data-name="Group 1107" transform="translate(93.895 14.696)">
        <path id="Path_997" data-name="Path 997" d="M140.659,23.533l-.411.81a27.861,27.861,0,0,1-1.969,3.42,17.435,17.435,0,0,1-4.24,4.152,1.913,1.913,0,0,0,.286-.166,17.455,17.455,0,0,0,4.25-4.158,27.889,27.889,0,0,0,1.967-3.42l.217-.427Z" transform="translate(-134.039 -23.533)" fill="#cbad63"/>
        <path id="Path_998" data-name="Path 998" d="M140.659,23.533l-.411.81a27.861,27.861,0,0,1-1.969,3.42,17.461,17.461,0,0,1-4.24,4.152,1.913,1.913,0,0,0,.286-.166,17.455,17.455,0,0,0,4.25-4.158,27.889,27.889,0,0,0,1.967-3.42l.217-.427-.1-.211Z" transform="translate(-134.039 -23.533)" fill="#ffeec1"/>
      </g>
      <g id="Group_1108" data-name="Group 1108" transform="translate(156.886 27.631)">
        <path id="Path_999" data-name="Path 999" d="M194.383,34.891c-.012-.012-.065-.049-.273-.049l-.2.007c-.172.015-.344.019-.516.019l-.788-.012s-12.9,0-14.631,0c-.08.007-.162.013-.24.013a.886.886,0,0,1-.675-.257.914.914,0,0,1-.2-.73,1.832,1.832,0,0,0-.03-.355,1.27,1.27,0,0,1,.386-1.28.737.737,0,0,0-.12.036,1.189,1.189,0,0,0-.562,1.418,1.815,1.815,0,0,1,.03.353.912.912,0,0,0,.2.73.889.889,0,0,0,.675.257c.08,0,.162-.006.242-.012,1.731,0,14.629,0,14.629,0l.789.01c.172,0,.344,0,.515-.018l.2-.009c.208,0,.263.037.274.05s.074.085.074.4a1.75,1.75,0,0,1-.01.24c.3-.015.306-.085.306-.412S194.391,34.9,194.383,34.891Z" transform="translate(-176.499 -32.252)" fill="#cbad63"/>
        <path id="Path_1000" data-name="Path 1000" d="M177.219,32.252a.737.737,0,0,0-.12.036,1.189,1.189,0,0,0-.562,1.418,1.815,1.815,0,0,1,.03.353.912.912,0,0,0,.2.73.889.889,0,0,0,.675.257c.08,0,.162-.006.242-.012,1.731,0,14.629,0,14.629,0l.789.01c.172,0,.344,0,.515-.018l.2-.009c.208,0,.263.037.274.05s.074.085.074.4a1.75,1.75,0,0,1-.01.24c.3-.015.306-.085.306-.412s-.067-.395-.074-.4-.065-.049-.273-.049l-.2.007c-.172.015-.344.019-.516.019l-.788-.012s-12.9,0-14.631,0c-.08.007-.162.013-.24.013a.886.886,0,0,1-.675-.257.914.914,0,0,1-.2-.73,1.832,1.832,0,0,0-.03-.355,1.269,1.269,0,0,1,.386-1.28Z" transform="translate(-176.499 -32.252)" fill="#ffeec1"/>
      </g>
      <g id="Group_1109" data-name="Group 1109" transform="translate(114.498 9.456)">
        <path id="Path_1001" data-name="Path 1001" d="M156.725,20.286a1.786,1.786,0,0,1,.24-.285,1.122,1.122,0,0,0-.536.458,40.442,40.442,0,0,1-6.535,7.152,3.948,3.948,0,0,0-1.429,2.782,4.375,4.375,0,0,0,1.362,3.172,7.476,7.476,0,0,0,2.678,1.813.884.884,0,0,1,.366.206h0a3.279,3.279,0,0,1-.28.384c-1.527,1.8-3.016,3.638-4.5,5.476a1.059,1.059,0,0,1-.16.144.852.852,0,0,0,.457-.317c1.484-1.837,2.975-3.672,4.5-5.474a3.217,3.217,0,0,0,.282-.384h0c-.006-.01-.071-.089-.365-.208a7.439,7.439,0,0,1-2.678-1.811,4.369,4.369,0,0,1-1.362-3.173,3.937,3.937,0,0,1,1.427-2.78A40.394,40.394,0,0,0,156.725,20.286Z" transform="translate(-147.927 -20.001)" fill="#cbad63"/>
        <path id="Path_1002" data-name="Path 1002" d="M156.965,20a1.122,1.122,0,0,0-.536.458,40.442,40.442,0,0,1-6.535,7.152,3.948,3.948,0,0,0-1.429,2.782,4.375,4.375,0,0,0,1.362,3.172,7.476,7.476,0,0,0,2.678,1.813c.288.114.356.191.365.206h0a3.279,3.279,0,0,1-.28.384c-1.527,1.8-3.016,3.638-4.5,5.476a1.059,1.059,0,0,1-.16.144.852.852,0,0,0,.457-.317c1.484-1.837,2.975-3.672,4.5-5.474a3.217,3.217,0,0,0,.282-.384h0a.909.909,0,0,0-.365-.206,7.439,7.439,0,0,1-2.678-1.811,4.369,4.369,0,0,1-1.362-3.173,3.937,3.937,0,0,1,1.427-2.78,40.394,40.394,0,0,0,6.535-7.154,1.786,1.786,0,0,1,.24-.285Zm-3.8,15.41h0Z" transform="translate(-147.927 -20.001)" fill="#ffeec1"/>
      </g>
      <g id="Group_1110" data-name="Group 1110" transform="translate(140.64 20.789)">
        <path id="Path_1003" data-name="Path 1003" d="M172.613,27.748c-1.458,1.012-2.93,2-4.4,2.994l-1.973,1.329c-.35.2-.679.392-.688.777a.972.972,0,0,0,.546.777.043.043,0,0,0-.024-.009c-.059,0-.062.18-.062.279,0,.669,0,1.184,0,1.7,0,.72,0,1.439.012,2.157a.9.9,0,0,1-.015.187.522.522,0,0,0,.266-.046s.05-.055.044-.315c-.015-.718-.013-1.438-.01-2.156,0-.516,0-1.033,0-1.7,0-.1,0-.28.062-.28a.04.04,0,0,1,.025.01.971.971,0,0,1-.547-.779c.01-.384.34-.573.69-.776L168.5,30.57c1.442-.97,2.883-1.942,4.311-2.93A1.95,1.95,0,0,0,172.613,27.748Z" transform="translate(-165.548 -27.64)" fill="#cbad63"/>
        <path id="Path_1004" data-name="Path 1004" d="M172.816,27.64a1.95,1.95,0,0,0-.2.108c-1.458,1.012-2.93,2-4.4,2.994l-1.973,1.329c-.35.2-.679.392-.688.777a.968.968,0,0,0,.54.774l.006,0-.006,0-.018-.006c-.059,0-.062.18-.062.279,0,.669,0,1.184,0,1.7,0,.72,0,1.439.012,2.157a.9.9,0,0,1-.015.187.522.522,0,0,0,.266-.046s.05-.055.044-.315c-.015-.718-.013-1.438-.01-2.156,0-.516,0-1.033,0-1.7,0-.1,0-.28.062-.28l.019.006a.968.968,0,0,1-.542-.774c.01-.384.34-.573.69-.776L168.5,30.57c1.442-.97,2.883-1.942,4.311-2.93Zm-6.431,5.81.006,0-.006,0Z" transform="translate(-165.548 -27.64)" fill="#ffeec1"/>
      </g>
      <g id="Group_1111" data-name="Group 1111" transform="translate(34.447 29.217)">
        <path id="Path_1005" data-name="Path 1005" d="M94.809,34.153l-.546-.251.4-.451a.952.952,0,0,1,.153-.131,1.088,1.088,0,0,0-.45.3l-.4.451.546.252a2.332,2.332,0,0,0,1.024.2c.125,0,.681-.022.681-.022l.632,0,1.917-.01c.5,0,.99.006,1.485.027h.021a1.491,1.491,0,0,0,1.019-.276,2.106,2.106,0,0,1-.722.1h-.022c-.494-.022-.988-.028-1.484-.028l-1.918.01-.632,0s-.555.024-.681.024A2.344,2.344,0,0,1,94.809,34.153Z" transform="translate(-93.968 -33.321)" fill="#cbad63"/>
        <path id="Path_1006" data-name="Path 1006" d="M94.815,33.321a1.088,1.088,0,0,0-.45.3l-.4.451.546.252a2.332,2.332,0,0,0,1.024.2c.125,0,.681-.022.681-.022l.632,0,1.917-.012c.5,0,.99.007,1.485.028h.021a1.491,1.491,0,0,0,1.019-.276,2.106,2.106,0,0,1-.722.1h-.022c-.494-.022-.988-.028-1.484-.028l-1.918.01-.632,0s-.555.024-.681.024a2.344,2.344,0,0,1-1.024-.206l-.546-.251.4-.451a.952.952,0,0,1,.153-.131Z" transform="translate(-93.968 -33.321)" fill="#ffeec1"/>
      </g>
      <g id="Group_1112" data-name="Group 1112" transform="translate(16.27 26.943)">
        <path id="Path_1007" data-name="Path 1007" d="M82.679,32.739c-.306-.039-.387-.319-.45-.521l-.156-.43-.358,0,.217.6c.062.2.144.482.45.521,1.113.172,1.113.172,1.113,1.319a4.971,4.971,0,0,1-.126,1.636.558.558,0,0,0,.264-.1,3.922,3.922,0,0,0,.159-1.709C83.791,32.91,83.791,32.91,82.679,32.739Z" transform="translate(-81.716 -31.788)" fill="#cbad63"/>
        <path id="Path_1008" data-name="Path 1008" d="M82.074,31.788l-.358,0,.217.6c.062.2.144.482.45.521,1.113.172,1.113.172,1.113,1.319a4.971,4.971,0,0,1-.126,1.636.558.558,0,0,0,.264-.1,3.922,3.922,0,0,0,.159-1.709c0-1.147,0-1.147-1.113-1.317-.306-.039-.387-.319-.45-.521l-.156-.43Z" transform="translate(-81.716 -31.788)" fill="#ffeec1"/>
      </g>
      <g id="Group_1113" data-name="Group 1113" transform="translate(0 30.038)">
        <path id="Path_1009" data-name="Path 1009" d="M71,34.239c2.676.007,5.311.01,7.946.01l7.314-.006.452.016a1.584,1.584,0,0,0,.938-.274l.16-.111a1.72,1.72,0,0,1-.8.214l-.452-.018-7.315.006c-2.635,0-5.268,0-7.944-.01a1.263,1.263,0,0,0-.507.062.27.27,0,0,0-.043.117C70.847,34.239,70.946,34.239,71,34.239Z" transform="translate(-70.749 -33.874)" fill="#cbad63"/>
        <path id="Path_1010" data-name="Path 1010" d="M87.813,33.874a1.72,1.72,0,0,1-.8.214l-.452-.018-7.315.006c-2.635,0-5.268,0-7.944-.01a1.263,1.263,0,0,0-.507.062.27.27,0,0,0-.043.117c.1-.006.2-.006.254-.006,2.676.007,5.311.01,7.946.01l7.314-.006.452.016a1.584,1.584,0,0,0,.938-.274l.16-.111Z" transform="translate(-70.749 -33.874)" fill="#ffeec1"/>
      </g>
      <g id="Group_1114" data-name="Group 1114" transform="translate(15.709 25.713)">
        <path id="Path_1011" data-name="Path 1011" d="M81.519,31.223a3.978,3.978,0,0,0,.656.061,2.026,2.026,0,0,0,1.116-.325,2.239,2.239,0,0,1-.819.151,3.952,3.952,0,0,1-.656-.059,1.126,1.126,0,0,0-.2-.019.212.212,0,0,0-.276.175A1.365,1.365,0,0,1,81.519,31.223Z" transform="translate(-81.338 -30.959)" fill="#cbad63"/>
        <path id="Path_1012" data-name="Path 1012" d="M83.29,30.959a2.239,2.239,0,0,1-.819.151,3.952,3.952,0,0,1-.656-.059,1.126,1.126,0,0,0-.2-.019.212.212,0,0,0-.276.175,1.365,1.365,0,0,1,.181.016,3.978,3.978,0,0,0,.656.061,2.026,2.026,0,0,0,1.116-.325Z" transform="translate(-81.338 -30.959)" fill="#ffeec1"/>
      </g>
      <g id="Group_1115" data-name="Group 1115" transform="translate(21.753 19.461)">
        <path id="Path_1013" data-name="Path 1013" d="M89.685,26.919h.187a7.6,7.6,0,0,1,7.007,4.848,1.877,1.877,0,0,0,1.952,1.524l.26-.007c.237-.015.438-.025.6-.025a.866.866,0,0,1,.356.039,4.3,4.3,0,0,1,.055,1.016v.2c0,.039,0,.079,0,.117l.169.07-.166.046c0,.129,0,.257.009.384a4.846,4.846,0,0,1-.04,1.1h.082c.139,0,.177-.018.206-.095a4.494,4.494,0,0,0,.049-1.179c-.009-.206-.018-.414-.015-.617v-.206a4.284,4.284,0,0,0-.055-1.015.832.832,0,0,0-.356-.039c-.166,0-.365.01-.6.024l-.258.007a1.876,1.876,0,0,1-1.952-1.524,7.6,7.6,0,0,0-7.008-4.847l-.185,0a8.4,8.4,0,0,0-4.569,1.294A8.469,8.469,0,0,1,89.685,26.919Z" transform="translate(-85.412 -26.745)" fill="#cbad63"/>
        <path id="Path_1014" data-name="Path 1014" d="M89.981,26.745a8.4,8.4,0,0,0-4.569,1.294,8.469,8.469,0,0,1,4.273-1.12h.187a7.6,7.6,0,0,1,7.007,4.848,1.877,1.877,0,0,0,1.952,1.524l.26-.007c.237-.015.438-.025.6-.025a.866.866,0,0,1,.356.039,4.3,4.3,0,0,1,.055,1.016v.2c0,.039,0,.079,0,.117l.169.07-.166.046c0,.129,0,.257.009.384a4.846,4.846,0,0,1-.04,1.1h.082c.139,0,.177-.018.206-.095a4.494,4.494,0,0,0,.049-1.179c-.009-.206-.018-.414-.015-.617v-.206a4.284,4.284,0,0,0-.055-1.015.832.832,0,0,0-.356-.039c-.166,0-.365.01-.6.024l-.258.007a1.876,1.876,0,0,1-1.952-1.524,7.6,7.6,0,0,0-7.008-4.847l-.185,0Z" transform="translate(-85.412 -26.745)" fill="#ffeec1"/>
      </g>
      <g id="Group_1116" data-name="Group 1116" transform="translate(46.293 18.559)">
        <path id="Path_1015" data-name="Path 1015" d="M102.271,26.71a.664.664,0,0,1,.079-.524c.016-.025.04-.03.059-.049a.527.527,0,0,0-.356.221.67.67,0,0,0-.079.524,20.422,20.422,0,0,1,.231,4.716c-.027.972-.055,1.975,0,2.972a1.1,1.1,0,0,1-.013.28.66.66,0,0,0,.258-.07c.016-.018.068-.1.05-.384-.058-1-.03-2,0-2.97A20.5,20.5,0,0,0,102.271,26.71Z" transform="translate(-101.953 -26.137)" fill="#cbad63"/>
        <path id="Path_1016" data-name="Path 1016" d="M102.409,26.137a.527.527,0,0,0-.356.221.67.67,0,0,0-.079.524,20.422,20.422,0,0,1,.231,4.716c-.027.972-.055,1.975,0,2.972a1.1,1.1,0,0,1-.013.28.66.66,0,0,0,.258-.07c.016-.018.068-.1.05-.384-.058-1-.03-2,0-2.97a20.5,20.5,0,0,0-.231-4.716.664.664,0,0,1,.079-.524c.016-.025.04-.03.059-.049Z" transform="translate(-101.953 -26.137)" fill="#ffeec1"/>
      </g>
      <g id="Group_1117" data-name="Group 1117" transform="translate(19.021 21.283)">
        <path id="Path_1017" data-name="Path 1017" d="M83.671,33.065a1.058,1.058,0,0,1-.1.4c.225-.01.349-.083.4-.573a6.45,6.45,0,0,1,3.274-4.919A6.475,6.475,0,0,0,83.671,33.065Z" transform="translate(-83.57 -27.973)" fill="#cbad63"/>
        <path id="Path_1018" data-name="Path 1018" d="M87.242,27.973a6.475,6.475,0,0,0-3.571,5.092,1.058,1.058,0,0,1-.1.4c.225-.01.349-.083.4-.573a6.45,6.45,0,0,1,3.274-4.919Z" transform="translate(-83.57 -27.973)" fill="#ffeec1"/>
      </g>
      <g id="Group_1118" data-name="Group 1118" transform="translate(46.955 7.66)">
        <path id="Path_1019" data-name="Path 1019" d="M107.64,18.8c-.739.266-.835.987-.906,1.512a2.149,2.149,0,0,1-.166.7,6.975,6.975,0,0,1-1.178,1.7,9.052,9.052,0,0,0-2.973,6.471,2.41,2.41,0,0,1-.018.358,1.042,1.042,0,0,1,.175-.045c.125-.028.135-.031.138-.485a9.061,9.061,0,0,1,2.973-6.473,6.88,6.88,0,0,0,1.179-1.7,2.217,2.217,0,0,0,.166-.7,1.818,1.818,0,0,1,.638-1.347Z" transform="translate(-102.399 -18.79)" fill="#cbad63"/>
        <path id="Path_1020" data-name="Path 1020" d="M107.669,18.79l-.028.007c-.739.266-.835.987-.906,1.512a2.149,2.149,0,0,1-.166.7,6.975,6.975,0,0,1-1.178,1.7,9.052,9.052,0,0,0-2.973,6.471,2.41,2.41,0,0,1-.018.358,1.042,1.042,0,0,1,.175-.045c.125-.028.135-.031.138-.485a9.061,9.061,0,0,1,2.973-6.473,6.88,6.88,0,0,0,1.179-1.7,2.217,2.217,0,0,0,.166-.7,1.818,1.818,0,0,1,.638-1.347Z" transform="translate(-102.399 -18.79)" fill="#ffeec1"/>
      </g>
      <g id="Group_1119" data-name="Group 1119" transform="translate(42.92 27.471)">
        <path id="Path_1021" data-name="Path 1021" d="M100.548,32.144a1.213,1.213,0,0,0-.55.409,3.171,3.171,0,0,0-.249,2.19c.021.2.042.392.052.574a1.419,1.419,0,0,1-.024.448c.181-.019.24-.062.255-.079.034-.036.088-.154.064-.542-.009-.182-.031-.377-.052-.576a3.166,3.166,0,0,1,.251-2.188A1.087,1.087,0,0,1,100.548,32.144Z" transform="translate(-99.679 -32.144)" fill="#cbad63"/>
        <path id="Path_1022" data-name="Path 1022" d="M100.548,32.144a1.213,1.213,0,0,0-.55.409,3.171,3.171,0,0,0-.249,2.19c.021.2.042.392.052.574a1.419,1.419,0,0,1-.024.448c.181-.019.24-.062.255-.079.034-.036.088-.154.064-.542-.009-.182-.031-.377-.052-.576a3.175,3.175,0,0,1,.249-2.188,1.122,1.122,0,0,1,.255-.237Z" transform="translate(-99.679 -32.144)" fill="#ffeec1"/>
      </g>
    </g>
  </g>
</svg>
