<svg id="baseline-phone-24px" xmlns="http://www.w3.org/2000/svg" width="13.294" height="13.294" viewBox="0 0 13.294 13.294">
  <path id="Path_1034" data-name="Path 1034" d="M0,0H13.294V13.294H0Z" fill="none"/>
  <path id="Path_1035" data-name="Path 1035" d="M5.005,7.315a8.391,8.391,0,0,0,3.65,3.65L9.874,9.747a.551.551,0,0,1,.565-.133,6.318,6.318,0,0,0,1.977.316.556.556,0,0,1,.554.554v1.933a.556.556,0,0,1-.554.554A9.416,9.416,0,0,1,3,3.554.556.556,0,0,1,3.554,3H5.493a.556.556,0,0,1,.554.554,6.293,6.293,0,0,0,.316,1.977.556.556,0,0,1-.138.565Z" transform="translate(-1.338 -1.338)" fill="#a0a0a0"/>
</svg>
