<svg xmlns="http://www.w3.org/2000/svg" width="483" height="483" viewBox="0 0 483 483"><path fill="#FEB653" d="M-6-5h496v495H-6z"/><g fill="#F05D54"><path opacity=".2" d="M599.8 119.4c24.1 7.4 46.4 28.6 51.9 80 3.5 74-62.6 179-123.5 133.6-60.9 45.5-127-59.6-123.5-133.6C418 76 528.2 126.3 528.2 126.3s37.6-17.2 71.6-6.9M319.8 119.4c24.1 7.4 46.4 28.6 51.9 80 3.5 74-62.6 179-123.5 133.6-60.9 45.5-127-59.6-123.5-133.6C138 76 248.2 126.3 248.2 126.3s37.6-17.2 71.6-6.9M163.8-152.6c24.1 7.4 46.4 28.6 51.9 80 3.5 74-62.6 179-123.5 133.6C31.3 106.5-34.8 1.4-31.3-72.6-18-196 92.2-145.7 92.2-145.7s37.6-17.2 71.6-6.9M457.8-152.6c24.1 7.4 46.4 28.6 51.9 80 3.5 74-62.6 179-123.5 133.6-60.8 45.5-127-59.6-123.5-133.6C276-196 386.2-145.7 386.2-145.7s37.6-17.2 71.6-6.9M25.8 119.4c24.1 7.4 46.4 28.6 51.9 80 3.5 74-62.6 179-123.5 133.5-60.8 45.6-127-59.5-123.5-133.5C-156 76-45.8 126.3-45.8 126.3s37.6-17.2 71.6-6.9"/></g><g fill="#FFF"><path d="M117.5 406.6v-20h9.3c4.3 0 6.7 3 6.7 6.5s-2.4 6.4-6.7 6.4h-5v7.1h-4.3zm11.7-13.5c0-1.7-1.3-2.7-3-2.7h-4.5v5.4h4.5c1.7 0 3-1 3-2.7zM134.6 399.4c0-4.1 2.9-7.6 7.7-7.6 4.7 0 7.6 3.5 7.6 7.6 0 4-2.9 7.6-7.6 7.6a7.3 7.3 0 0 1-7.7-7.6zm11.4 0c0-2.3-1.4-4.2-3.7-4.2-2.4 0-3.7 2-3.7 4.2s1.3 4.2 3.7 4.2c2.3 0 3.7-2 3.7-4.2zM165.4 406.6l-3-9.8-3 9.8h-4.1l-4.4-14.4h4l2.6 9.7 3.2-9.7h3.3l3.2 9.7 2.7-9.7h4l-4.4 14.4h-4zM174.8 399.4c0-4.2 3.2-7.6 7.5-7.6s7.2 3.2 7.2 8v.8h-10.7c.3 1.8 1.7 3.3 4.2 3.3a6 6 0 0 0 3.8-1.5l1.7 2.6a9 9 0 0 1-6 2c-4.3 0-7.7-3-7.7-7.6zm7.5-4.5a3.3 3.3 0 0 0-3.5 3h7.1c-.1-1.3-1-3-3.6-3zM192.3 406.6v-14.4h3.8v2c1-1.3 2.8-2.4 4.6-2.4v3.7h-1c-1.3 0-3 .6-3.6 1.6v9.5h-3.8zM202.1 399.4c0-4.2 3.1-7.6 7.5-7.6 4.3 0 7.2 3.2 7.2 8v.8h-10.7c.3 1.8 1.7 3.3 4.2 3.3a6 6 0 0 0 3.8-1.5l1.7 2.6a9 9 0 0 1-6 2c-4.3 0-7.7-3-7.7-7.6zm7.5-4.5a3.3 3.3 0 0 0-3.5 3h7.1c-.1-1.3-1-3-3.6-3zM229.5 406.6v-1.9a5.6 5.6 0 0 1-4.4 2.3c-3.7 0-6.4-2.8-6.4-7.6 0-4.7 2.7-7.6 6.4-7.6 1.7 0 3.3.7 4.4 2.2v-7.3h3.8v19.9h-3.8zm0-4.7v-5c-.6-1-2-1.7-3.2-1.7-2.2 0-3.7 1.7-3.7 4.2s1.5 4.2 3.7 4.2c1.2 0 2.6-.7 3.2-1.7zM244.8 406.6v-20h3.8v7.4a5.5 5.5 0 0 1 4.4-2.2c3.7 0 6.4 2.9 6.4 7.6 0 4.8-2.7 7.6-6.4 7.6-1.7 0-3.3-.8-4.4-2.3v1.9h-3.8zm7-3c2.3 0 3.7-1.7 3.7-4.2s-1.4-4.2-3.6-4.2c-1.3 0-2.6.7-3.3 1.7v5c.7 1 2 1.7 3.3 1.7zM262.4 408.8c.3.2.8.3 1.2.3 1 0 1.6-.3 2-1l.5-1.3-5.8-14.6h4l3.8 10 3.8-10h4l-6.7 16.8c-1.1 2.7-3 3.4-5.5 3.5-.4 0-1.4-.1-1.9-.3l.6-3.4zM283.6 405l1.9-3.2c.8.7 1.8 1.4 3.2 1.4 1.8 0 3-1.3 3-3.2v-13.3h4.3V400c0 4.6-3 6.9-7 6.9-2 0-4-.6-5.4-2zM309.6 406.6v-1.8c-1 1-2.7 2.2-5 2.2-3.2 0-4.7-1.8-4.7-4.6v-10.2h3.8v8.7c0 2 1 2.7 2.6 2.7 1.5 0 2.7-.8 3.3-1.7v-9.7h3.8v14.4h-3.8zM316.8 388.3c0-1.2 1-2.2 2.3-2.2 1.2 0 2.2 1 2.2 2.2 0 1.3-1 2.3-2.2 2.3-1.3 0-2.3-1-2.3-2.3zm.4 18.3v-14.4h3.8v14.4h-3.8zM323.8 399.4c0-4.5 3.2-7.6 7.7-7.6 3 0 4.7 1.3 5.7 2.6l-2.5 2.3c-.7-1-1.7-1.5-3-1.5-2.4 0-4 1.7-4 4.2s1.6 4.2 4 4.2c1.3 0 2.3-.6 3-1.6l2.5 2.3a6.7 6.7 0 0 1-5.7 2.7 7.3 7.3 0 0 1-7.7-7.6zM338.7 399.4c0-4.2 3.1-7.6 7.5-7.6 4.3 0 7.2 3.2 7.2 8v.8h-10.7c.3 1.8 1.7 3.3 4.2 3.3a6 6 0 0 0 3.8-1.5l1.7 2.6a9 9 0 0 1-6 2c-4.4 0-7.7-3-7.7-7.6zm7.5-4.5a3.3 3.3 0 0 0-3.5 3h7c0-1.3-1-3-3.5-3zM356.2 406.6v-14.4h3.8v2c1-1.3 2.8-2.4 4.6-2.4v3.7h-1c-1.3 0-3 .6-3.6 1.6v9.5h-3.8z"/></g><path fill="none" stroke="#F05D54" stroke-width="4" stroke-linejoin="round" stroke-miterlimit="10" d="M307.8 106.4c24.1 7.4 46.4 28.6 51.9 80 3.5 74-62.6 179-123.5 133.6-60.9 45.5-127-59.6-123.5-133.6C126 63 236.2 113.3 236.2 113.3s37.6-17.2 71.6-6.9M236.2 113.3V59.8"/><path fill="none" stroke="#F05D54" stroke-width="4" stroke-linecap="round" stroke-linejoin="round" stroke-miterlimit="10" d="M191.2 68.2s2.6 28.3 29.2 20.8M191.2 68.2s27.6-6.8 29.2 20.8"/><path fill="none" stroke="#F05D54" stroke-width="4" stroke-linejoin="round" stroke-miterlimit="10" d="M587.8 106.4c24.1 7.4 46.4 28.6 51.9 80 3.5 74-62.6 179-123.5 133.6-60.9 45.5-127-59.6-123.5-133.6C406 63 516.2 113.3 516.2 113.3s37.6-17.2 71.6-6.9"/><path fill="none" stroke="#F05D54" stroke-width="4" stroke-linecap="round" stroke-linejoin="round" stroke-miterlimit="10" d="M471.2 68.2s2.6 28.3 29.2 20.8M471.2 68.2s27.6-6.8 29.2 20.8M246.6 213.3v-27.1c0-4.3 25.2 2 0 27.1zM226 213v-27.2c0-4.3-25.3 2 0 27.1z"/><path fill="none" stroke="#F05D54" stroke-width="4" stroke-linejoin="round" stroke-miterlimit="10" d="M15.8 106.4c24.1 7.4 46.4 28.6 51.9 80 3.5 74-62.6 179-123.5 133.5-60.9 45.6-127-59.5-123.5-133.5C-166 63-55.8 113.3-55.8 113.3s37.6-17.2 71.6-6.9M151.8-164.6c24.1 7.4 46.4 28.6 51.9 80 3.5 74-62.6 179-123.5 133.6C19.3 94.5-46.8-10.6-43.3-84.6-30-208 80.2-157.7 80.2-157.7s37.6-17.2 71.6-6.9M444.8-164.6c24.1 7.4 46.4 28.6 51.9 80 3.5 74-62.6 179-123.5 133.6-60.8 45.5-127-59.6-123.5-133.6C263-208 373.2-157.7 373.2-157.7s37.6-17.2 71.6-6.9"/></svg>